<?xml version="1.0" encoding="UTF-8" standalone="no"?>
<svg width="900" height="750" xmlns="http://www.w3.org/2000/svg">
  <style>
    .box { stroke: #333; stroke-width: 2px; }
    .label { font-family: Arial; font-size: 14px; }
    .title { font-family: Arial; font-size: 16px; font-weight: bold; }
    .arrow { stroke: #333; stroke-width: 2px; marker-end: url(#arrowhead); }
    .config { fill: #e3f2fd; }
    .database { fill: #e8f5e9; }
    .app { fill: #fff8e1; }
    .server { fill: #f3e5f5; }
    .code { font-family: "Courier New"; font-size: 12px; }
  </style>
  
  <defs>
    <marker id="arrowhead" markerWidth="10" markerHeight="7" refX="9" refY="3.5" orient="auto">
      <polygon points="0 0, 10 3.5, 0 7" fill="#333" />
    </marker>
  </defs>
  
  <!-- Title -->
  <rect x="150" y="30" width="600" height="40" rx="5" fill="#bbdefb" class="box" />
  <text x="450" y="55" text-anchor="middle" class="title">Application Startup Sequence</text>
  
  <!-- Entry Point -->
  <rect x="350" y="100" width="200" height="50" rx="5" class="box app" />
  <text x="450" y="130" text-anchor="middle" class="title">Application Entry (main.py)</text>
  
  <line x1="450" y1="150" x2="450" y2="180" class="arrow" />
  
  <!-- App Creation -->
  <rect x="250" y="180" width="400" height="320" rx="5" class="box app" />
  <text x="450" y="205" text-anchor="middle" class="title">Flask Application Creation (app.py)</text>
  
  <!-- App Configuration Steps -->
  <rect x="275" y="220" width="350" height="60" rx="3" class="box config" />
  <text x="450" y="240" text-anchor="middle" class="label">Import Dependencies</text>
  <text x="450" y="260" text-anchor="middle" class="code">from flask import Flask</text>
  <text x="450" y="275" text-anchor="middle" class="code">from flask_sqlalchemy import SQLAlchemy</text>
  
  <line x1="450" y1="280" x2="450" y2="300" class="arrow" />
  
  <rect x="275" y="300" width="350" height="60" rx="3" class="box config" />
  <text x="450" y="320" text-anchor="middle" class="label">Initialize Flask Application</text>
  <text x="450" y="340" text-anchor="middle" class="code">app = Flask(__name__)</text>
  <text x="450" y="355" text-anchor="middle" class="code">app.secret_key = os.environ.get("SESSION_SECRET", "dev-secret-key")</text>
  
  <line x1="450" y1="360" x2="450" y2="380" class="arrow" />
  
  <rect x="275" y="380" width="350" height="60" rx="3" class="box database" />
  <text x="450" y="400" text-anchor="middle" class="label">Configure Database</text>
  <text x="450" y="420" text-anchor="middle" class="code">app.config["SQLALCHEMY_DATABASE_URI"] = os.environ.get(</text>
  <text x="450" y="435" text-anchor="middle" class="code">    "DATABASE_URL", "sqlite:///app.db")</text>
  
  <line x1="450" y1="440" x2="450" y2="460" class="arrow" />
  
  <rect x="275" y="460" width="350" height="60" rx="3" class="box config" />
  <text x="450" y="480" text-anchor="middle" class="label">Initialize Extensions</text>
  <text x="450" y="500" text-anchor="middle" class="code">db.init_app(app)</text>
  <text x="450" y="515" text-anchor="middle" class="code">login_manager.init_app(app)</text>
  
  <line x1="450" y1="520" x2="450" y2="540" class="arrow" />
  
  <!-- Database Setup -->
  <rect x="100" y="540" width="300" height="100" rx="5" class="box database" />
  <text x="250" y="565" text-anchor="middle" class="title">Database Initialization</text>
  <text x="250" y="590" text-anchor="middle" class="label">Import Models</text>
  <text x="250" y="610" text-anchor="middle" class="code">import models</text>
  <text x="250" y="630" text-anchor="middle" class="code">db.create_all()</text>
  
  <!-- Route Registration -->
  <rect x="500" y="540" width="300" height="100" rx="5" class="box app" />
  <text x="650" y="565" text-anchor="middle" class="title">Route Registration</text>
  <text x="650" y="590" text-anchor="middle" class="label">Register View Functions</text>
  <text x="650" y="610" text-anchor="middle" class="code">app.add_url_rule('/', 'index', views.index)</text>
  <text x="650" y="630" text-anchor="middle" class="code">app.add_url_rule('/login', 'login', views.login, methods=['GET', 'POST'])</text>
  
  <line x1="250" y1="640" x2="250" y2="670" class="arrow" />
  <line x1="650" y1="640" x2="650" y2="670" class="arrow" />
  
  <!-- Server Startup -->
  <rect x="250" y="670" width="400" height="60" rx="5" class="box server" />
  <text x="450" y="695" text-anchor="middle" class="title">Server Startup</text>
  <text x="450" y="715" text-anchor="middle" class="code">app.run(host="0.0.0.0", port=5000, debug=True)</text>
  
  <!-- Side Annotations -->
  <rect x="50" y="300" width="150" height="140" rx="5" stroke="#666" stroke-width="1" stroke-dasharray="5,5" fill="#f5f5f5" />
  <text x="125" y="320" text-anchor="middle" class="label" fill="#333">Core Objects</text>
  <text x="125" y="340" text-anchor="middle" class="code" fill="#333">- Flask app</text>
  <text x="125" y="360" text-anchor="middle" class="code" fill="#333">- SQLAlchemy db</text>
  <text x="125" y="380" text-anchor="middle" class="code" fill="#333">- LoginManager</text>
  <text x="125" y="400" text-anchor="middle" class="code" fill="#333">- EncryptionManager</text>
  <text x="125" y="420" text-anchor="middle" class="code" fill="#333">- PasswordGenerator</text>
  
  <rect x="700" y="300" width="150" height="140" rx="5" stroke="#666" stroke-width="1" stroke-dasharray="5,5" fill="#f5f5f5" />
  <text x="775" y="320" text-anchor="middle" class="label" fill="#333">Production Deployment</text>
  <text x="775" y="340" text-anchor="middle" class="code" fill="#333">- Gunicorn WSGI</text>
  <text x="775" y="360" text-anchor="middle" class="code" fill="#333">- Multiple workers</text>
  <text x="775" y="380" text-anchor="middle" class="code" fill="#333">- PostgreSQL DB</text>
  <text x="775" y="400" text-anchor="middle" class="code" fill="#333">- Environment vars</text>
  <text x="775" y="420" text-anchor="middle" class="code" fill="#333">- Reverse proxy</text>
</svg>