<?xml version="1.0" encoding="UTF-8" standalone="no"?>
<svg width="800" height="500" xmlns="http://www.w3.org/2000/svg">
  <style>
    .entity { stroke: #333; stroke-width: 2px; fill: #f5f5f5; }
    .header { fill: #e3f2fd; stroke: #333; stroke-width: 1px; }
    .attribute { font-family: Arial; font-size: 12px; }
    .entityName { font-family: Arial; font-size: 16px; font-weight: bold; }
    .relationship { stroke: #333; stroke-width: 2px; marker-end: url(#arrowhead); }
    .pk { font-weight: bold; }
    .fk { font-style: italic; }
  </style>
  
  <defs>
    <marker id="arrowhead" markerWidth="10" markerHeight="7" refX="9" refY="3.5" orient="auto">
      <polygon points="0 0, 10 3.5, 0 7" fill="#333" />
    </marker>
  </defs>
  
  <!-- User Entity -->
  <rect x="100" y="100" width="250" height="250" rx="5" class="entity" />
  <rect x="100" y="100" width="250" height="40" rx="5" class="header" />
  <text x="225" y="125" text-anchor="middle" class="entityName">User</text>
  
  <!-- User Attributes -->
  <text x="110" y="165" class="attribute pk">id: Integer (PK)</text>
  <line x1="100" y1="175" x2="350" y2="175" stroke="#ddd" />
  <text x="110" y="195" class="attribute">username: String(64) (unique, not null)</text>
  <line x1="100" y1="205" x2="350" y2="205" stroke="#ddd" />
  <text x="110" y="225" class="attribute">password_hash: String(256) (not null)</text>
  <line x1="100" y1="235" x2="350" y2="235" stroke="#ddd" />
  <text x="110" y="255" class="attribute">created_at: DateTime (default: utcnow)</text>
  <line x1="100" y1="265" x2="350" y2="265" stroke="#ddd" />
  <text x="110" y="285" class="attribute">salt: String(64) (not null)</text>
  <line x1="100" y1="295" x2="350" y2="295" stroke="#ddd" />
  <text x="110" y="315" class="attribute">passwords: relationship (backref='owner')</text>
  
  <!-- Password Entity -->
  <rect x="450" y="100" width="250" height="300" rx="5" class="entity" />
  <rect x="450" y="100" width="250" height="40" rx="5" class="header" />
  <text x="575" y="125" text-anchor="middle" class="entityName">Password</text>
  
  <!-- Password Attributes -->
  <text x="460" y="165" class="attribute pk">id: Integer (PK)</text>
  <line x1="450" y1="175" x2="700" y2="175" stroke="#ddd" />
  <text x="460" y="195" class="attribute">url: String(255) (not null)</text>
  <line x1="450" y1="205" x2="700" y2="205" stroke="#ddd" />
  <text x="460" y="225" class="attribute">username: String(128) (not null)</text>
  <line x1="450" y1="235" x2="700" y2="235" stroke="#ddd" />
  <text x="460" y="255" class="attribute">encrypted_password: Text (not null)</text>
  <line x1="450" y1="265" x2="700" y2="265" stroke="#ddd" />
  <text x="460" y="285" class="attribute">iv: Text (not null)</text>
  <line x1="450" y1="295" x2="700" y2="295" stroke="#ddd" />
  <text x="460" y="315" class="attribute">created_at: DateTime (default: utcnow)</text>
  <line x1="450" y1="325" x2="700" y2="325" stroke="#ddd" />
  <text x="460" y="345" class="attribute">updated_at: DateTime (onupdate: utcnow)</text>
  <line x1="450" y1="355" x2="700" y2="355" stroke="#ddd" />
  <text x="460" y="375" class="attribute fk">user_id: Integer (FK, not null)</text>
  <line x1="450" y1="385" x2="700" y2="385" stroke="#ddd" />
  
  <!-- Relationship -->
  <path d="M350,200 L400,200 L400,225 L450,225" class="relationship" />
  
  <!-- Relationship description -->
  <text x="400" y="190" text-anchor="middle" font-family="Arial" font-size="14px">1</text>
  <text x="440" y="215" text-anchor="middle" font-family="Arial" font-size="14px">*</text>
  <text x="400" y="420" text-anchor="middle" font-family="Arial" font-size="14px">One-to-Many Relationship</text>
  <text x="400" y="440" text-anchor="middle" font-family="Arial" font-size="12px">(1 User has many Passwords)</text>
</svg>