<?xml version="1.0" encoding="UTF-8" standalone="no"?>
<svg width="900" height="700" xmlns="http://www.w3.org/2000/svg">
  <style>
    .box { stroke: #333; stroke-width: 2px; }
    .label { font-family: Arial; font-size: 14px; }
    .title { font-family: Arial; font-size: 16px; font-weight: bold; }
    .arrow { stroke: #333; stroke-width: 2px; marker-end: url(#arrowhead); }
    .client { fill: #e3f2fd; }
    .server { fill: #e8f5e9; }
    .crypto { fill: #fff8e1; }
    .storage { fill: #f3e5f5; }
  </style>
  
  <defs>
    <marker id="arrowhead" markerWidth="10" markerHeight="7" refX="9" refY="3.5" orient="auto">
      <polygon points="0 0, 10 3.5, 0 7" fill="#333" />
    </marker>
  </defs>
  
  <!-- Title -->
  <rect x="150" y="30" width="600" height="40" rx="5" fill="#bbdefb" class="box" />
  <text x="450" y="55" text-anchor="middle" class="title">Password Encryption/Decryption Workflow</text>
  
  <!-- Side Labels -->
  <rect x="150" y="90" width="150" height="40" rx="5" class="box client" />
  <text x="225" y="115" text-anchor="middle" class="title">Client Side</text>
  
  <rect x="600" y="90" width="150" height="40" rx="5" class="box server" />
  <text x="675" y="115" text-anchor="middle" class="title">Server Side</text>
  
  <!-- Client Side Components -->
  <rect x="100" y="150" width="250" height="100" rx="5" class="box client" />
  <text x="225" y="175" text-anchor="middle" class="title">User Interface</text>
  <text x="225" y="200" text-anchor="middle" class="label">Password Input Form</text>
  <text x="225" y="220" text-anchor="middle" class="label">Masked Password Field</text>
  <text x="225" y="240" text-anchor="middle" class="label">Toggle Visibility Button</text>
  
  <line x1="225" y1="250" x2="225" y2="280" class="arrow" />
  
  <rect x="100" y="280" width="250" height="100" rx="5" class="box client" />
  <text x="225" y="305" text-anchor="middle" class="title">Password Strength Check</text>
  <text x="225" y="330" text-anchor="middle" class="label">JavaScript Validation</text>
  <text x="225" y="350" text-anchor="middle" class="label">Visual Strength Indicator</text>
  
  <line x1="225" y1="380" x2="225" y2="410" class="arrow" />
  
  <rect x="100" y="410" width="250" height="80" rx="5" class="box client" />
  <text x="225" y="435" text-anchor="middle" class="title">Form Submission</text>
  <text x="225" y="460" text-anchor="middle" class="label">CSRF Token Included</text>
  
  <line x1="350" y1="450" x2="450" y2="450" class="arrow" />
  <text x="400" y="435" class="label">HTTP POST</text>
  
  <!-- Server Side Components -->
  <rect x="550" y="150" width="250" height="100" rx="5" class="box server" />
  <text x="675" y="175" text-anchor="middle" class="title">Request Handling</text>
  <text x="675" y="200" text-anchor="middle" class="label">Form Validation</text>
  <text x="675" y="220" text-anchor="middle" class="label">User Authentication Check</text>
  <text x="675" y="240" text-anchor="middle" class="label">CSRF Verification</text>
  
  <line x1="675" y1="250" x2="675" y2="280" class="arrow" />
  
  <!-- Encryption Flow -->
  <rect x="550" y="280" width="250" height="350" rx="5" class="box server" />
  <text x="675" y="305" text-anchor="middle" class="title">Encryption Process</text>
  
  <rect x="575" y="320" width="200" height="60" rx="5" class="box crypto" />
  <text x="675" y="345" text-anchor="middle" class="label">Retrieve User Salt</text>
  <text x="675" y="365" text-anchor="middle" class="label">from Database</text>
  
  <line x1="675" y1="380" x2="675" y2="400" class="arrow" />
  
  <rect x="575" y="400" width="200" height="60" rx="5" class="box crypto" />
  <text x="675" y="425" text-anchor="middle" class="title">Key Derivation</text>
  <text x="675" y="445" text-anchor="middle" class="label">PBKDF2 with SHA-256</text>
  
  <line x1="675" y1="460" x2="675" y2="480" class="arrow" />
  
  <rect x="575" y="480" width="200" height="60" rx="5" class="box crypto" />
  <text x="675" y="505" text-anchor="middle" class="title">AES-GCM Encryption</text>
  <text x="675" y="525" text-anchor="middle" class="label">Generate Random IV</text>
  
  <line x1="675" y1="540" x2="675" y2="560" class="arrow" />
  
  <rect x="575" y="560" width="200" height="60" rx="5" class="box storage" />
  <text x="675" y="585" text-anchor="middle" class="title">Database Storage</text>
  <text x="675" y="605" text-anchor="middle" class="label">Encrypted Password + IV</text>
  
  <!-- Response Flow -->
  <line x1="675" y1="620" x2="675" y2="640" class="arrow" />
  <line x1="675" y1="640" x2="225" y2="640" class="arrow" />
  <text x="450" y="630" class="label">Redirect to Dashboard</text>
  
  <!-- Decryption Flow (Simplified) -->
  <line x1="550" y1="500" x2="500" y2="500" stroke-dasharray="5,5" stroke="#666" stroke-width="1" />
  <text x="520" y="490" text-anchor="middle" class="label" fill="#666">Decryption</text>
  <text x="520" y="510" text-anchor="middle" class="label" fill="#666">Flow</text>
  
  <rect x="400" y="470" width="100" height="60" rx="5" stroke-dasharray="5,5" stroke="#666" stroke-width="1" fill="#fff8e1" fill-opacity="0.5" />
  <text x="450" y="495" text-anchor="middle" class="label" fill="#666">Retrieve</text>
  <text x="450" y="515" text-anchor="middle" class="label" fill="#666">Password</text>
  
  <line x1="400" y1="500" x2="350" y2="500" stroke-dasharray="5,5" stroke="#666" stroke-width="1" marker-end="url(#arrowhead)" />
  <text x="375" y="490" text-anchor="middle" class="label" fill="#666">View</text>
  <text x="375" y="510" text-anchor="middle" class="label" fill="#666">Request</text>
</svg>