<?xml version="1.0" encoding="UTF-8" standalone="no"?>
<svg width="900" height="700" xmlns="http://www.w3.org/2000/svg">
  <style>
    .box { stroke: #333; stroke-width: 2px; }
    .label { font-family: Arial; font-size: 14px; }
    .title { font-family: Arial; font-size: 16px; font-weight: bold; }
    .arrow { stroke: #333; stroke-width: 2px; marker-end: url(#arrowhead); }
    .input { fill: #e3f2fd; }
    .process { fill: #e8f5e9; }
    .output { fill: #fff8e1; }
    .validation { fill: #f3e5f5; }
  </style>
  
  <defs>
    <marker id="arrowhead" markerWidth="10" markerHeight="7" refX="9" refY="3.5" orient="auto">
      <polygon points="0 0, 10 3.5, 0 7" fill="#333" />
    </marker>
  </defs>
  
  <!-- Title -->
  <rect x="150" y="30" width="600" height="40" rx="5" fill="#bbdefb" class="box" />
  <text x="450" y="55" text-anchor="middle" class="title">Password Generation System</text>
  
  <!-- User Input -->
  <rect x="100" y="100" width="250" height="150" rx="5" class="box input" />
  <text x="225" y="125" text-anchor="middle" class="title">User Input Options</text>
  
  <rect x="125" y="140" width="200" height="30" rx="3" class="box" fill="#white" />
  <text x="225" y="160" text-anchor="middle" class="label">Password Length: 8-64 chars</text>
  
  <rect x="125" y="180" width="200" height="30" rx="3" class="box" fill="#white" />
  <text x="225" y="200" text-anchor="middle" class="label">Include Uppercase Letters: Y/N</text>
  
  <rect x="125" y="210" width="200" height="30" rx="3" class="box" fill="#white" />
  <text x="225" y="230" text-anchor="middle" class="label">Include Digits: Y/N</text>
  
  <rect x="125" y="240" width="200" height="30" rx="3" class="box" fill="#white" />
  <text x="225" y="260" text-anchor="middle" class="label">Include Symbols: Y/N</text>
  
  <line x1="225" y1="270" x2="225" y2="290" class="arrow" />
  
  <!-- Input Validation -->
  <rect x="100" y="290" width="250" height="60" rx="5" class="box validation" />
  <text x="225" y="315" text-anchor="middle" class="title">Input Validation</text>
  <text x="225" y="335" text-anchor="middle" class="label">Minimum Length: 8 characters</text>
  
  <line x1="225" y1="350" x2="225" y2="370" class="arrow" />
  
  <!-- Character Set Building -->
  <rect x="100" y="370" width="250" height="120" rx="5" class="box process" />
  <text x="225" y="395" text-anchor="middle" class="title">Character Set Building</text>
  
  <rect x="125" y="410" width="200" height="25" rx="3" class="box" fill="#white" />
  <text x="225" y="427" text-anchor="middle" class="label">Lowercase: a-z (Always)</text>
  
  <rect x="125" y="440" width="200" height="25" rx="3" class="box" fill="#white" />
  <text x="225" y="457" text-anchor="middle" class="label">+ Optional Character Sets</text>
  
  <line x1="225" y1="490" x2="225" y2="510" class="arrow" />
  
  <!-- Password Generation -->
  <rect x="100" y="510" width="250" height="100" rx="5" class="box process" />
  <text x="225" y="535" text-anchor="middle" class="title">Password Generation</text>
  <text x="225" y="560" text-anchor="middle" class="label">secrets.choice() from Python</text>
  <text x="225" y="580" text-anchor="middle" class="label">Cryptographically Secure PRNG</text>
  
  <line x1="225" y1="610" x2="225" y2="630" class="arrow" />
  
  <!-- Character Guarantee -->
  <rect x="100" y="630" width="250" height="100" rx="5" class="box process" />
  <text x="225" y="655" text-anchor="middle" class="title">Character Set Guarantee</text>
  <text x="225" y="675" text-anchor="middle" class="label">Ensure at least one character</text>
  <text x="225" y="695" text-anchor="middle" class="label">from each selected set</text>
  
  <!-- Implementation Detail -->
  <rect x="400" y="100" width="400" height="450" rx="5" class="box" fill="#fafafa" />
  <text x="600" y="125" text-anchor="middle" class="title">Implementation Details</text>
  
  <rect x="420" y="140" width="360" height="120" rx="3" class="box" fill="#f5f5f5" />
  <text x="600" y="160" text-anchor="middle" class="title">Character Sets</text>
  <text x="600" y="185" text-anchor="middle" class="label">self.lowercase_letters = string.ascii_lowercase</text>
  <text x="600" y="210" text-anchor="middle" class="label">self.uppercase_letters = string.ascii_uppercase</text>
  <text x="600" y="235" text-anchor="middle" class="label">self.digits = string.digits</text>
  <text x="600" y="260" text-anchor="middle" class="label">self.symbols = "!@#$%^&*()-_=+[]{}|;:,.<>?/~"</text>
  
  <rect x="420" y="280" width="360" height="120" rx="3" class="box" fill="#f5f5f5" />
  <text x="600" y="300" text-anchor="middle" class="title">Random Generation</text>
  <text x="600" y="325" text-anchor="middle" class="label">for _ in range(length):</text>
  <text x="600" y="350" text-anchor="middle" class="label">    password += secrets.choice(charset)</text>
  <text x="600" y="375" text-anchor="middle" class="label">Uses Python's secrets module for</text>
  <text x="600" y="395" text-anchor="middle" class="label">cryptographically strong random values</text>
  
  <rect x="420" y="420" width="360" height="110" rx="3" class="box" fill="#f5f5f5" />
  <text x="600" y="440" text-anchor="middle" class="title">Character Guarantee Logic</text>
  <text x="600" y="465" text-anchor="middle" class="label">if not any(c in self.lowercase_letters for c in password):</text>
  <text x="600" y="490" text-anchor="middle" class="label">    password = self._replace_random_char(</text>
  <text x="600" y="515" text-anchor="middle" class="label">        password, self.lowercase_letters)</text>
  
  <!-- Strength Evaluation -->
  <rect x="400" y="570" width="400" height="160" rx="5" class="box output" />
  <text x="600" y="595" text-anchor="middle" class="title">Password Strength Evaluation</text>
  
  <rect x="420" y="610" width="170" height="100" rx="3" class="box" fill="#white" />
  <text x="505" y="630" text-anchor="middle" class="label">Scoring Factors:</text>
  <text x="505" y="650" text-anchor="middle" class="label">- Length (8+, 10+, 12+)</text>
  <text x="505" y="670" text-anchor="middle" class="label">- Character variety</text>
  <text x="505" y="690" text-anchor="middle" class="label">- Pattern detection</text>
  
  <rect x="610" y="610" width="170" height="100" rx="3" class="box" fill="#white" />
  <text x="695" y="630" text-anchor="middle" class="label">Strength Ratings:</text>
  <text x="695" y="650" text-anchor="middle" class="label">- Weak (≤ 2 points)</text>
  <text x="695" y="670" text-anchor="middle" class="label">- Medium (3-4 points)</text>
  <text x="695" y="690" text-anchor="middle" class="label">- Strong/Very Strong (5+)</text>
  
  <!-- Connection to strength evaluation -->
  <line x1="350" y1="675" x2="400" y2="675" class="arrow" />
</svg>